<svg xmlns="http://www.w3.org/2000/svg" version="1.1" xmlns:xlink="http://www.w3.org/1999/xlink" xmlns:svgjs="http://svgjs.dev/svgjs" width="1000" height="1000" viewBox="0 0 1000 1000"><rect width="1000" height="1000" fill="#ffffff"></rect><g transform="matrix(0.7,0,0,0.7,149.5757576258734,411.6376307888073)"><svg viewBox="0 0 396 100" data-background-color="#ffffff" preserveAspectRatio="xMidYMid meet" height="252" width="1000" xmlns="http://www.w3.org/2000/svg" xmlns:xlink="http://www.w3.org/1999/xlink"><defs></defs><g id="tight-bounds" transform="matrix(1,0,0,1,0.24000002835134637,0.09204603809109813)"><svg viewBox="0 0 395.52 99.81590792381778" height="99.81590792381778" width="395.52"><g><svg viewBox="0 0 561.4003075274717 141.67850274212455" height="99.81590792381778" width="395.52"><g transform="matrix(1,0,0,1,0,19.58074820820969)"><svg viewBox="0 0 395.52 102.51700632570517" height="102.51700632570517" width="395.52"><g><svg viewBox="0 0 395.52 102.51700632570517" height="102.51700632570517" width="395.52"><g><svg viewBox="0 0 395.52 102.51700632570517" height="102.51700632570517" width="395.52"><g transform="matrix(1,0,0,1,0,0)"><svg width="395.52" viewBox="0.28166669607162476 -36.11000061035156 144.48834228515625 37.45000076293945" height="102.51700632570517" data-palette-color="#ff5858"><path d="M1.2 0.37Q0.73 0.32 0.49-0.05 0.24-0.42 0.29-0.85L0.29-0.85Q0.42-1.61 0.76-2.25 1.1-2.88 1.26-3.2 1.42-3.52 1.59-3.91L1.59-3.91 2.51-6.05 12.55-36.11 23.34-15.26 33.81-36.11 46.34 0 33.23 0 27.17-18.65 17.8 0.88 7.93-16.7 4.52-6.03Q3.71-4.25 3.37-3 3.03-1.76 2.81-1.07L2.81-1.07Q2.32 0.46 1.2 0.37L1.2 0.37ZM51.27 0L51.27-34.55 63.72-34.55 63.72-24.44 72.41-31.01Q74.24-32.4 75.07-33.28 75.9-34.16 76.11-34.34 76.32-34.52 76.49-34.62L76.49-34.62Q76.78-34.81 77.23-34.81 77.68-34.81 77.95-34.56 78.22-34.3 78.22-34 78.22-33.69 78.15-33.48 78.07-33.28 77.85-33.01L77.85-33.01Q77.37-32.42 76-31.37L76-31.37 70.53-27.22 79.69-4.83Q79.95-4.2 80.2-3.71L80.2-3.71 80.59-2.83 81.03-2Q81.2-1.66 81.32-1.34 81.44-1.03 81.42-0.73 81.39-0.44 81.25-0.2L81.25-0.2Q80.91 0.34 80.42 0.34L80.42 0.34Q79.73 0.34 79.39-0.05L79.39-0.05Q78.95-0.59 78.73-1.25L78.73-1.25 78.29-2.61Q78.07-3.3 77.71-4.25L77.71-4.25 68.85-25.95 63.72-22.07 63.72 0 51.27 0ZM108.15-2.1L108.15-2.1Q109.39-2.1 109.39-1.12L109.39-1.12Q109.39-0.68 108.86-0.34 108.32 0 107 0L107 0 86.32 0 86.32-34.55Q95.94-34.55 105.56-34.55L105.56-34.55 107.56-34.62Q109.39-34.62 109.39-33.54L109.39-33.54Q109.39-33.13 109.09-32.78 108.78-32.42 108.39-32.42L108.39-32.42Q107.76-32.42 107.05-32.57L107.05-32.57Q106-32.79 104.17-32.79L104.17-32.79 98.77-32.79 98.77-25.34 103.22-25.34Q103.22-25.34 106.22-25.46L106.22-25.46Q106.76-25.46 107.14-25.21 107.51-24.95 107.51-24.49L107.51-24.49Q107.51-23.46 106.15-23.46L106.15-23.46 105.1-23.49Q104.29-23.56 103.75-23.56L103.75-23.56 98.77-23.56 98.77-1.78 104.17-1.78Q105.98-1.78 106.73-1.93L106.73-1.93Q107.64-2.1 108.15-2.1ZM118.13-19.48L118.13-3.49 118.21-1.05Q118.21-0.42 117.86-0.07 117.52 0.27 117.05 0.27 116.57 0.27 116.25-0.05 115.93-0.37 115.93-0.74 115.93-1.12 116-1.45 116.06-1.78 116.11-2.2L116.11-2.2Q116.23-2.91 116.23-5.74L116.23-5.74 116.23-36.11 142.77-15.06 142.77-29.61Q142.77-31.27 142.67-31.98L142.67-31.98Q142.55-33.13 142.55-33.59L142.55-33.59Q142.55-34.81 143.6-34.81L143.6-34.81Q144.01-34.81 144.39-34.52 144.77-34.23 144.77-33.67L144.77-33.67 144.77-32.81 144.67-29.27 144.67 1.34 118.13-19.48Z" opacity="1" transform="matrix(1,0,0,1,0,0)" fill="#000000" class="undefined-text-0" data-fill-palette-color="primary" id="text-0"></path></svg></g></svg></g></svg></g></svg></g><g transform="matrix(1,0,0,1,419.72180478534716,0)"><svg viewBox="0 0 141.67850274212455 141.67850274212455" height="141.67850274212455" width="141.67850274212455"><g data-palette-color="#ed2647"><rect width="38.72545741618071" height="141.67850274212455" fill="#000000" stroke="transparent" data-fill-palette-color="accent" x="0" fill-opacity="1"></rect><rect width="38.72545741618071" height="141.67850274212455" fill="#000000" stroke="transparent" data-fill-palette-color="accent" x="47.22616758070818" fill-opacity="0.75"></rect><rect width="38.72545741618071" height="141.67850274212455" fill="#000000" stroke="transparent" data-fill-palette-color="accent" x="94.45233516141636" fill-opacity="0.5"></rect></g></svg></g></svg></g></svg><rect width="395.52" height="99.81590792381778" fill="none" stroke="none" visibility="hidden"></rect></g></svg></g></svg>